<svg width="38" height="45" viewBox="0 0 38 45" fill="none" xmlns="http://www.w3.org/2000/svg">
<path d="M24.5 39L30 39.5L25.7143 29.5L17 33.5L21 44L24.5 39Z" fill="#BF360C"/>
<path d="M7 39.5L12 30L21.5 33L16.5 45L13.5 39.5H7Z" fill="#F4511E"/>
<path d="M16.1483 3.94862C17.5378 2.02471 20.414 2.05866 21.7577 4.01484V4.01484C22.6246 5.27704 24.2231 5.8119 25.6751 5.32566L26.3409 5.1027C28.567 4.35724 30.8967 5.91788 31.0543 8.26018V8.26018C31.1484 9.65874 32.0493 10.874 33.3601 11.3707L33.8905 11.5716C35.9441 12.3497 36.6741 14.8824 35.3497 16.6341V16.6341C34.5269 17.7224 34.4609 19.2054 35.1836 20.3625L35.5569 20.9602C36.7812 22.9201 35.7889 25.5069 33.568 26.1454V26.1454C32.1536 26.5519 31.1482 27.8047 31.0575 29.2736L31.0306 29.7082C30.883 32.0992 28.5565 33.7365 26.2559 33.0684V33.0684C24.874 32.6671 23.3843 33.0945 22.4254 34.1675L21.936 34.7151C20.4382 36.3909 17.7682 36.2279 16.4854 34.3824V34.3824C15.6608 33.1961 14.1888 32.6429 12.7869 32.9924L11.8378 33.2291C9.5106 33.8094 7.25735 32.0491 7.25735 29.6506V28.9964C7.25735 27.7145 6.39699 26.5921 5.15905 26.2591V26.2591C2.96387 25.6686 2.32186 22.8641 4.04153 21.3774L4.20853 21.233C5.57028 20.0557 5.57029 17.9443 4.20853 16.767L4.04153 16.6226C2.32186 15.136 2.96387 12.3314 5.15905 11.7409V11.7409C6.39699 11.4079 7.25735 10.2855 7.25735 9.00358V8.50919C7.25735 6.11906 9.61169 4.44052 11.8713 5.21969L12.099 5.29821C13.5606 5.80223 15.1799 5.28953 16.0851 4.0361L16.1483 3.94862Z" fill="#FFA000"/>
<circle cx="19" cy="19" r="13" fill="#FFCA28"/>
<circle cx="19" cy="19" r="11" fill="#FAFAFA"/>
<path d="M21.1317 12.1818V26H18.2102V14.9549H18.1293L14.9648 16.9386V14.3477L18.3857 12.1818H21.1317Z" fill="#607D8B"/>
</svg>
